<svg viewBox="0 0 880 166" fill="none" aria-hidden="true" class="h-7"><path fill-rule="evenodd" clip-rule="evenodd" d="m78.091 0 5.967 5.676c15.038 14.306 35.323 23.067 57.663 23.067.356 0 .711-.002 1.065-.006l6.363-.08 1.988 6.072a102.026 102.026 0 0 1 5.045 31.782c0 47.391-32.269 87.19-75.928 98.477l-2.163.559-2.163-.559C32.27 153.701 0 113.902 0 66.511c0-11.085 1.769-21.772 5.045-31.782l1.988-6.072 6.363.08c.354.004.71.006 1.065.006 22.34 0 42.625-8.761 57.664-23.067L78.09 0ZM19.846 46.033a84.814 84.814 0 0 0-2.492 20.478c0 38.459 25.662 70.919 60.737 81.006 35.075-10.087 60.738-42.547 60.738-81.006 0-7.071-.866-13.93-2.493-20.478-22.009-1.16-42.166-9.387-58.245-22.453-16.079 13.066-36.235 21.293-58.245 22.453Z" fill="#8B5CF6"></path><path d="M275.081 58.045c-10.205 0-18.126 3.828-22.696 10.718V29.564h-19.65v107.184h19.65V95.406c0-13.321 7.159-18.987 16.756-18.987 8.835 0 15.08 5.36 15.08 15.772v44.557h19.65V89.741c0-20.365-12.643-31.696-28.79-31.696Zm59.125 48.539h57.426c.457-2.603.762-5.206.762-8.116 0-22.508-15.994-40.423-38.538-40.423-23.916 0-40.214 17.609-40.214 40.423 0 22.815 16.146 40.424 41.737 40.424 14.623 0 26.048-5.972 33.207-16.384l-15.842-9.187c-3.351 4.441-9.444 7.656-17.06 7.656-10.359 0-18.737-4.287-21.478-14.393Zm-.305-15.312c2.285-9.8 9.444-15.465 19.955-15.465 8.225 0 16.451 4.44 18.888 15.465h-38.843Zm88.817-17.915V60.188h-19.65v76.56h19.65v-36.595c0-16.078 12.948-20.671 23.153-19.446v-22.05c-9.596 0-19.193 4.288-23.153 14.7Zm65.027 65.535c22.392 0 40.366-17.609 40.366-40.424 0-22.814-17.974-40.423-40.366-40.423s-40.214 17.609-40.214 40.423c0 22.815 17.822 40.424 40.214 40.424Zm0-19.293c-11.577 0-20.564-8.728-20.564-21.13 0-12.403 8.987-21.131 20.564-21.131 11.729 0 20.716 8.728 20.716 21.13 0 12.403-8.987 21.131-20.716 21.131Zm60.892-68.598c6.702 0 12.186-5.512 12.186-12.096 0-6.584-5.484-12.25-12.186-12.25-6.55 0-12.034 5.666-12.034 12.25a12.255 12.255 0 0 0 3.561 8.517 12.126 12.126 0 0 0 8.473 3.58Zm-9.749 85.747h19.65v-76.56h-19.65v76.56Zm70.842 2.144c14.928 0 27.876-7.962 34.426-19.905l-17.06-9.8c-3.047 6.278-9.597 10.106-17.518 10.106-11.729 0-20.412-8.728-20.412-20.825 0-12.25 8.683-20.977 20.412-20.977 7.769 0 14.319 3.981 17.365 10.26l16.908-9.954c-6.245-11.79-19.193-19.752-34.121-19.752-23.153 0-40.214 17.609-40.214 40.423 0 22.815 17.061 40.424 40.214 40.424Zm76.833 0c22.391 0 40.366-17.609 40.366-40.424 0-22.814-17.975-40.423-40.366-40.423-22.392 0-40.214 17.609-40.214 40.423 0 22.815 17.822 40.424 40.214 40.424Zm0-19.293c-11.577 0-20.564-8.728-20.564-21.13 0-12.403 8.987-21.131 20.564-21.131 11.729 0 20.716 8.728 20.716 21.13 0 12.403-8.987 21.131-20.716 21.131Zm93.49-61.554c-10.206 0-18.127 3.828-22.697 10.718v-8.575h-19.65v76.56h19.65V95.406c0-13.321 7.159-18.987 16.756-18.987 8.835 0 15.08 5.36 15.08 15.772v44.557h19.65V89.741c0-20.365-12.643-31.696-28.789-31.696ZM840.7 81.93c0-4.134 3.96-6.277 8.835-6.277 5.636 0 9.901 2.909 12.186 7.809l16.756-9.188c-5.941-10.565-16.604-16.23-28.942-16.23-15.69 0-28.942 8.728-28.942 24.346 0 26.949 39.3 20.824 39.3 32.002 0 4.44-4.265 6.584-10.51 6.584-7.617 0-12.796-3.675-14.928-9.953l-17.061 9.647c5.484 11.79 16.756 18.221 31.989 18.221 16.298 0 30.617-7.962 30.617-24.499 0-28.174-39.3-21.13-39.3-32.462Z" fill="#0F172A"></path></svg>
